<mxfile host="app.diagrams.net" modified="2023-12-11T09:26:28.426Z" agent="Mozilla/5.0 (Windows NT 10.0; Win64; x64) AppleWebKit/537.36 (KHTML, like Gecko) Chrome/119.0.0.0 Safari/537.36" etag="C89slAIPA5nL7gZ6DB-P" version="22.1.7" type="github">
  <diagram name="Halaman-1" id="l4pq7HLCnnbalSgYZ6aR">
    <mxGraphModel dx="1395" dy="652" grid="0" gridSize="10" guides="1" tooltips="1" connect="1" arrows="1" fold="1" page="1" pageScale="1" pageWidth="827" pageHeight="1169" math="0" shadow="0">
      <root>
        <mxCell id="0" />
        <mxCell id="1" parent="0" />
        <mxCell id="2-hd-AEn4cTGWOOdmUgB-1" value="&lt;div style=&quot;display: flex; justify-content: center; text-align: center; align-items: baseline; font-size: 0; line-height: 1.25;margin-top: -2px;&quot;&gt;&lt;span&gt;&lt;span style=&quot;font-size:16.7px;color:#3a414a;&quot;&gt;AVR &lt;/span&gt;&lt;span style=&quot;font-size:13.3px;color:#3a414a;&quot;&gt;(Audio Visual)&#xa;&#xa;&lt;/span&gt;&lt;span style=&quot;font-size:10px;color:#3a414a;&quot;&gt;Ruang Panel lt. 1&lt;/span&gt;&lt;/span&gt;&lt;/div&gt;" style="html=1;overflow=block;blockSpacing=1;whiteSpace=wrap;fontSize=13;spacing=9;strokeColor=#3a414a;strokeOpacity=100;rounded=1;absoluteArcSize=1;arcSize=9;strokeWidth=0.8;lucidId=J9zMpEfJHg_0;" vertex="1" parent="1">
          <mxGeometry x="450" y="435" width="150" height="75" as="geometry" />
        </mxCell>
        <mxCell id="2-hd-AEn4cTGWOOdmUgB-2" value="&lt;div style=&quot;display: flex; justify-content: center; text-align: center; align-items: baseline; font-size: 0; line-height: 1.25;margin-top: -2px;&quot;&gt;&lt;span&gt;&lt;span style=&quot;font-size:16.7px;color:#3a414a;&quot;&gt;Surge Protector&lt;/span&gt;&lt;span style=&quot;font-size:13.3px;color:#3a414a;&quot;&gt;&#xa;&#xa;&lt;/span&gt;&lt;span style=&quot;font-size:10px;color:#3a414a;&quot;&gt;Control Room lt. 2&lt;/span&gt;&lt;/span&gt;&lt;/div&gt;" style="html=1;overflow=block;blockSpacing=1;whiteSpace=wrap;fontSize=13;spacing=9;strokeColor=#3a414a;strokeOpacity=100;rounded=1;absoluteArcSize=1;arcSize=9;strokeWidth=0.8;lucidId=0-zM-0Lgg2be;" vertex="1" parent="1">
          <mxGeometry x="638" y="435" width="150" height="75" as="geometry" />
        </mxCell>
        <mxCell id="2-hd-AEn4cTGWOOdmUgB-3" value="&lt;div style=&quot;display: flex; justify-content: center; text-align: center; align-items: baseline; font-size: 0; line-height: 1.25;margin-top: -2px;&quot;&gt;&lt;span&gt;&lt;span style=&quot;font-size:16.7px;color:#3a414a;&quot;&gt;MCB 01&lt;/span&gt;&lt;span style=&quot;font-size:13.3px;color:#3a414a;&quot;&gt;&#xa;&#xa;&lt;/span&gt;&lt;span style=&quot;font-size:10px;color:#3a414a;&quot;&gt;Mixer Aula Maria&lt;/span&gt;&lt;span style=&quot;font-size:13.3px;color:#3a414a;&quot;&gt;&#xa;&lt;/span&gt;&lt;span style=&quot;font-size:10px;color:#3a414a;&quot;&gt;Control Room lt. 2&lt;/span&gt;&lt;/span&gt;&lt;/div&gt;" style="html=1;overflow=block;blockSpacing=1;whiteSpace=wrap;fontSize=13;spacing=9;strokeColor=#3a414a;strokeOpacity=100;rounded=1;absoluteArcSize=1;arcSize=9;strokeWidth=0.8;lucidId=~_zMvHKrXatC;" vertex="1" parent="1">
          <mxGeometry x="840" y="435" width="135" height="75" as="geometry" />
        </mxCell>
        <mxCell id="2-hd-AEn4cTGWOOdmUgB-4" value="&lt;div style=&quot;display: flex; justify-content: center; text-align: center; align-items: baseline; font-size: 0; line-height: 1.25;margin-top: -2px;&quot;&gt;&lt;span&gt;&lt;span style=&quot;font-size:16.7px;color:#3a414a;&quot;&gt;MCB 02&lt;/span&gt;&lt;span style=&quot;font-size:13.3px;color:#3a414a;&quot;&gt;&#xa;&#xa;&lt;/span&gt;&lt;span style=&quot;font-size:10px;color:#3a414a;&quot;&gt;Peralatan Visual&lt;/span&gt;&lt;span style=&quot;font-size:13.3px;color:#3a414a;&quot;&gt;&#xa;&lt;/span&gt;&lt;span style=&quot;font-size:10px;color:#3a414a;&quot;&gt;Control Room lt. 2&lt;/span&gt;&lt;/span&gt;&lt;/div&gt;" style="html=1;overflow=block;blockSpacing=1;whiteSpace=wrap;fontSize=13;spacing=9;strokeColor=#3a414a;strokeOpacity=100;rounded=1;absoluteArcSize=1;arcSize=9;strokeWidth=0.8;lucidId=l~zMyzTSoLpz;" vertex="1" parent="1">
          <mxGeometry x="840" y="596" width="135" height="75" as="geometry" />
        </mxCell>
        <mxCell id="2-hd-AEn4cTGWOOdmUgB-5" value="&lt;div style=&quot;display: flex; justify-content: center; text-align: center; align-items: baseline; font-size: 0; line-height: 1.25;margin-top: -2px;&quot;&gt;&lt;span&gt;&lt;span style=&quot;font-size:16.7px;color:#3a414a;&quot;&gt;MCB 03&lt;/span&gt;&lt;span style=&quot;font-size:13.3px;color:#3a414a;&quot;&gt;&#xa;&#xa;&lt;/span&gt;&lt;span style=&quot;font-size:10px;color:#3a414a;&quot;&gt;Peralatan Audio&lt;/span&gt;&lt;span style=&quot;font-size:13.3px;color:#3a414a;&quot;&gt;&#xa;&lt;/span&gt;&lt;span style=&quot;font-size:10px;color:#3a414a;&quot;&gt;Control Room lt. 2&lt;/span&gt;&lt;/span&gt;&lt;/div&gt;" style="html=1;overflow=block;blockSpacing=1;whiteSpace=wrap;fontSize=13;spacing=9;strokeColor=#3a414a;strokeOpacity=100;rounded=1;absoluteArcSize=1;arcSize=9;strokeWidth=0.8;lucidId=w~zMi9WmSfRD;" vertex="1" parent="1">
          <mxGeometry x="840" y="807.5" width="135" height="75" as="geometry" />
        </mxCell>
        <mxCell id="2-hd-AEn4cTGWOOdmUgB-6" value="&lt;div style=&quot;display: flex; justify-content: center; text-align: center; align-items: baseline; font-size: 0; line-height: 1.25;margin-top: -2px;&quot;&gt;&lt;span&gt;&lt;span style=&quot;font-size:16.7px;color:#3a414a;&quot;&gt;Saklar Zona 1&lt;/span&gt;&lt;span style=&quot;font-size:13.3px;color:#3a414a;&quot;&gt;&lt;br&gt;&lt;/span&gt;&lt;span style=&quot;font-size:10px;color:#3a414a;&quot;&gt;DriveRack &amp;amp; UPS CCTV&lt;/span&gt;&lt;span style=&quot;font-size:13.3px;color:#3a414a;&quot;&gt;&lt;br&gt;&lt;/span&gt;&lt;span style=&quot;font-size:10px;color:#3a414a;&quot;&gt;Control Room lt. 2&lt;/span&gt;&lt;/span&gt;&lt;/div&gt;" style="html=1;overflow=block;blockSpacing=1;whiteSpace=wrap;fontSize=13;spacing=9;strokeColor=#3a414a;strokeOpacity=100;rounded=1;absoluteArcSize=1;arcSize=9;strokeWidth=0.8;lucidId=I~zMqIOqC8kF;" vertex="1" parent="1">
          <mxGeometry x="360" y="555" width="135" height="75" as="geometry" />
        </mxCell>
        <mxCell id="2-hd-AEn4cTGWOOdmUgB-7" value="&lt;div style=&quot;display: flex; justify-content: center; text-align: center; align-items: baseline; font-size: 0; line-height: 1.25;margin-top: -2px;&quot;&gt;&lt;span&gt;&lt;span style=&quot;font-size:16.7px;color:#3a414a;&quot;&gt;Saklar Zona 2&lt;/span&gt;&lt;span style=&quot;font-size:13.3px;color:#3a414a;&quot;&gt;&lt;br&gt;&lt;/span&gt;&lt;span style=&quot;font-size:10px;color:#3a414a;&quot;&gt;Power &amp;amp; Mic Gereja&lt;/span&gt;&lt;span style=&quot;font-size:13.3px;color:#3a414a;&quot;&gt;&lt;br&gt;&lt;/span&gt;&lt;span style=&quot;font-size:10px;color:#3a414a;&quot;&gt;Control Room lt. 2&lt;/span&gt;&lt;/span&gt;&lt;/div&gt;" style="html=1;overflow=block;blockSpacing=1;whiteSpace=wrap;fontSize=13;spacing=9;strokeColor=#3a414a;strokeOpacity=100;rounded=1;absoluteArcSize=1;arcSize=9;strokeWidth=0.8;lucidId=OaAMbvwtcuPw;" vertex="1" parent="1">
          <mxGeometry x="555" y="555" width="135" height="75" as="geometry" />
        </mxCell>
        <mxCell id="2-hd-AEn4cTGWOOdmUgB-8" value="" style="html=1;jettySize=18;whiteSpace=wrap;overflow=block;blockSpacing=1;fontSize=13;strokeColor=#3a414a;strokeOpacity=100;strokeWidth=0.8;rounded=1;arcSize=12;edgeStyle=orthogonalEdgeStyle;startArrow=none;endArrow=block;endFill=1;exitX=1.002;exitY=0.5;exitPerimeter=0;entryX=-0.002;entryY=0.5;entryPerimeter=0;lucidId=HcAM5t5vytr2;" edge="1" parent="1" source="2-hd-AEn4cTGWOOdmUgB-1" target="2-hd-AEn4cTGWOOdmUgB-2">
          <mxGeometry width="100" height="100" relative="1" as="geometry">
            <Array as="points" />
          </mxGeometry>
        </mxCell>
        <mxCell id="2-hd-AEn4cTGWOOdmUgB-9" value="" style="html=1;jettySize=18;whiteSpace=wrap;overflow=block;blockSpacing=1;fontSize=13;strokeColor=#3a414a;strokeOpacity=100;strokeWidth=0.8;rounded=1;arcSize=12;edgeStyle=orthogonalEdgeStyle;startArrow=none;endArrow=block;endFill=1;exitX=1.002;exitY=0.5;exitPerimeter=0;entryX=-0.003;entryY=0.5;entryPerimeter=0;lucidId=JcAM2E7FVP~D;" edge="1" parent="1" source="2-hd-AEn4cTGWOOdmUgB-2" target="2-hd-AEn4cTGWOOdmUgB-3">
          <mxGeometry width="100" height="100" relative="1" as="geometry">
            <Array as="points" />
          </mxGeometry>
        </mxCell>
        <mxCell id="2-hd-AEn4cTGWOOdmUgB-10" value="" style="html=1;jettySize=18;whiteSpace=wrap;overflow=block;blockSpacing=1;fontSize=13;strokeColor=#3a414a;strokeOpacity=100;strokeWidth=0.8;rounded=1;arcSize=12;edgeStyle=orthogonalEdgeStyle;startArrow=none;endArrow=block;endFill=1;exitX=1.002;exitY=0.5;exitPerimeter=0;entryX=-0.003;entryY=0.5;entryPerimeter=0;lucidId=PcAMNpi9pcEz;" edge="1" parent="1" source="2-hd-AEn4cTGWOOdmUgB-2" target="2-hd-AEn4cTGWOOdmUgB-4">
          <mxGeometry width="100" height="100" relative="1" as="geometry">
            <Array as="points" />
          </mxGeometry>
        </mxCell>
        <mxCell id="2-hd-AEn4cTGWOOdmUgB-11" value="" style="html=1;jettySize=18;whiteSpace=wrap;overflow=block;blockSpacing=1;fontSize=13;strokeColor=#3a414a;strokeOpacity=100;strokeWidth=0.8;rounded=1;arcSize=12;edgeStyle=orthogonalEdgeStyle;startArrow=none;endArrow=block;endFill=1;exitX=1.002;exitY=0.5;exitPerimeter=0;entryX=-0.003;entryY=0.5;entryPerimeter=0;lucidId=RcAM2nXtmTUV;" edge="1" parent="1" source="2-hd-AEn4cTGWOOdmUgB-2" target="2-hd-AEn4cTGWOOdmUgB-5">
          <mxGeometry width="100" height="100" relative="1" as="geometry">
            <Array as="points" />
          </mxGeometry>
        </mxCell>
        <mxCell id="2-hd-AEn4cTGWOOdmUgB-12" value="" style="html=1;jettySize=18;whiteSpace=wrap;overflow=block;blockSpacing=1;fontSize=13;strokeColor=#3a414a;strokeOpacity=100;strokeWidth=0.8;rounded=1;arcSize=12;edgeStyle=orthogonalEdgeStyle;startArrow=none;endArrow=block;endFill=1;exitX=0.5;exitY=1.005;exitPerimeter=0;entryX=0.5;entryY=-0.005;entryPerimeter=0;lucidId=UcAM4B0DX6b5;" edge="1" parent="1" source="2-hd-AEn4cTGWOOdmUgB-2" target="2-hd-AEn4cTGWOOdmUgB-7">
          <mxGeometry width="100" height="100" relative="1" as="geometry">
            <Array as="points" />
          </mxGeometry>
        </mxCell>
        <mxCell id="2-hd-AEn4cTGWOOdmUgB-13" value="" style="html=1;jettySize=18;whiteSpace=wrap;overflow=block;blockSpacing=1;fontSize=13;strokeColor=#3a414a;strokeOpacity=100;strokeWidth=0.8;rounded=1;arcSize=12;edgeStyle=orthogonalEdgeStyle;startArrow=none;endArrow=block;endFill=1;exitX=0.5;exitY=1.005;exitPerimeter=0;entryX=0.5;entryY=-0.005;entryPerimeter=0;lucidId=YcAM73kTZnkv;" edge="1" parent="1" source="2-hd-AEn4cTGWOOdmUgB-2" target="2-hd-AEn4cTGWOOdmUgB-6">
          <mxGeometry width="100" height="100" relative="1" as="geometry">
            <Array as="points" />
          </mxGeometry>
        </mxCell>
        <mxCell id="2-hd-AEn4cTGWOOdmUgB-14" value="&lt;div style=&quot;display: flex; justify-content: center; text-align: center; align-items: baseline; font-size: 0; line-height: 1.25;margin-top: -2px;&quot;&gt;&lt;span&gt;&lt;span style=&quot;font-size:13.3px;color:#3a414a;&quot;&gt;Mixer Maria 1&lt;/span&gt;&lt;span style=&quot;font-size:13.3px;color:#3a414a;&quot;&gt;&lt;br&gt;&lt;/span&gt;&lt;span style=&quot;font-size:10px;color:#3a414a;&quot;&gt;Mixer Aula Maria lt. 1&lt;/span&gt;&lt;span style=&quot;font-size:13.3px;color:#3a414a;&quot;&gt; &lt;/span&gt;&lt;/span&gt;&lt;/div&gt;" style="html=1;overflow=block;blockSpacing=1;whiteSpace=wrap;fontSize=13;spacing=9;strokeColor=#3a414a;strokeOpacity=100;rounded=1;absoluteArcSize=1;arcSize=9;strokeWidth=0.8;lucidId=gdAMqx4UXAd5;" vertex="1" parent="1">
          <mxGeometry x="1020" y="416.5" width="135" height="52" as="geometry" />
        </mxCell>
        <mxCell id="2-hd-AEn4cTGWOOdmUgB-15" value="&lt;div style=&quot;display: flex; justify-content: center; text-align: center; align-items: baseline; font-size: 0; line-height: 1.25;margin-top: -2px;&quot;&gt;&lt;span&gt;&lt;span style=&quot;font-size:13.3px;color:#3a414a;&quot;&gt;Mixer Maria 2&lt;/span&gt;&lt;span style=&quot;font-size:13.3px;color:#3a414a;&quot;&gt;&lt;br&gt;&lt;/span&gt;&lt;span style=&quot;font-size:10px;color:#3a414a;&quot;&gt;Mixer Aula Maria lt. 2&lt;/span&gt;&lt;/span&gt;&lt;/div&gt;" style="html=1;overflow=block;blockSpacing=1;whiteSpace=wrap;fontSize=13;spacing=9;strokeColor=#3a414a;strokeOpacity=100;rounded=1;absoluteArcSize=1;arcSize=9;strokeWidth=0.8;lucidId=4eAMCaUPz5IJ;" vertex="1" parent="1">
          <mxGeometry x="1020" y="476.5" width="135" height="52" as="geometry" />
        </mxCell>
        <mxCell id="2-hd-AEn4cTGWOOdmUgB-16" value="&lt;div style=&quot;display: flex; justify-content: center; text-align: center; align-items: baseline; font-size: 0; line-height: 1.25;margin-top: -2px;&quot;&gt;&lt;span&gt;&lt;span style=&quot;font-size:13.3px;color:#3a414a;&quot;&gt;TV Control&lt;br&gt;&lt;/span&gt;&lt;span style=&quot;font-size:10px;color:#3a414a;&quot;&gt;Control Room lt. 2&lt;/span&gt;&lt;/span&gt;&lt;/div&gt;" style="html=1;overflow=block;blockSpacing=1;whiteSpace=wrap;fontSize=13;spacing=9;strokeColor=#3a414a;strokeOpacity=100;rounded=1;absoluteArcSize=1;arcSize=9;strokeWidth=0.8;lucidId=qfAMI~rG9kiW;" vertex="1" parent="1">
          <mxGeometry x="1020.5" y="574" width="135" height="54" as="geometry" />
        </mxCell>
        <mxCell id="2-hd-AEn4cTGWOOdmUgB-19" value="&lt;div style=&quot;display: flex; justify-content: center; text-align: center; align-items: baseline; font-size: 0; line-height: 1.25;margin-top: -2px;&quot;&gt;&lt;span&gt;&lt;span style=&quot;font-size:13.3px;color:#3a414a;&quot;&gt;Amplifier Selasar&lt;/span&gt;&lt;span style=&quot;font-size:10px;color:#3a414a;&quot;&gt;&lt;br&gt;Control Room lt. 2&lt;/span&gt;&lt;/span&gt;&lt;/div&gt;" style="html=1;overflow=block;blockSpacing=1;whiteSpace=wrap;fontSize=13;spacing=9;strokeColor=#3a414a;strokeOpacity=100;rounded=1;absoluteArcSize=1;arcSize=9;strokeWidth=0.8;lucidId=WfAMSABjxwg3;" vertex="1" parent="1">
          <mxGeometry x="1020" y="819" width="135" height="52" as="geometry" />
        </mxCell>
        <mxCell id="2-hd-AEn4cTGWOOdmUgB-20" value="" style="html=1;jettySize=18;whiteSpace=wrap;overflow=block;blockSpacing=1;fontSize=13;strokeColor=#3a414a;strokeOpacity=100;strokeWidth=0.8;rounded=1;arcSize=12;edgeStyle=orthogonalEdgeStyle;startArrow=none;endArrow=block;endFill=1;exitX=1.003;exitY=0.5;exitPerimeter=0;entryX=-0.003;entryY=0.5;entryPerimeter=0;lucidId=uiAMcKZfO.dA;" edge="1" parent="1" source="2-hd-AEn4cTGWOOdmUgB-3" target="2-hd-AEn4cTGWOOdmUgB-14">
          <mxGeometry width="100" height="100" relative="1" as="geometry">
            <Array as="points" />
          </mxGeometry>
        </mxCell>
        <mxCell id="2-hd-AEn4cTGWOOdmUgB-21" value="" style="html=1;jettySize=18;whiteSpace=wrap;overflow=block;blockSpacing=1;fontSize=13;strokeColor=#3a414a;strokeOpacity=100;strokeWidth=0.8;rounded=1;arcSize=12;edgeStyle=orthogonalEdgeStyle;startArrow=none;endArrow=block;endFill=1;exitX=1.003;exitY=0.5;exitPerimeter=0;entryX=-0.003;entryY=0.5;entryPerimeter=0;lucidId=yiAMW3y-0q34;" edge="1" parent="1" source="2-hd-AEn4cTGWOOdmUgB-3" target="2-hd-AEn4cTGWOOdmUgB-15">
          <mxGeometry width="100" height="100" relative="1" as="geometry">
            <Array as="points" />
          </mxGeometry>
        </mxCell>
        <mxCell id="2-hd-AEn4cTGWOOdmUgB-22" value="" style="html=1;jettySize=18;whiteSpace=wrap;overflow=block;blockSpacing=1;fontSize=13;strokeColor=#3a414a;strokeOpacity=100;strokeWidth=0.8;rounded=1;arcSize=12;edgeStyle=orthogonalEdgeStyle;startArrow=none;endArrow=block;endFill=1;exitX=1.003;exitY=0.5;exitPerimeter=0;entryX=-0.003;entryY=0.5;entryPerimeter=0;lucidId=BiAM5VQ3H9kd;" edge="1" parent="1" source="2-hd-AEn4cTGWOOdmUgB-4" target="2-hd-AEn4cTGWOOdmUgB-16">
          <mxGeometry width="100" height="100" relative="1" as="geometry">
            <Array as="points" />
          </mxGeometry>
        </mxCell>
        <mxCell id="2-hd-AEn4cTGWOOdmUgB-23" value="" style="html=1;jettySize=18;whiteSpace=wrap;overflow=block;blockSpacing=1;fontSize=13;strokeColor=#3a414a;strokeOpacity=100;strokeWidth=0.8;rounded=1;arcSize=12;edgeStyle=orthogonalEdgeStyle;startArrow=none;endArrow=block;endFill=1;exitX=1.003;exitY=0.5;exitPerimeter=0;entryX=-0.003;entryY=0.5;entryPerimeter=0;lucidId=DiAM_c.AP4oo;" edge="1" parent="1" source="2-hd-AEn4cTGWOOdmUgB-4" target="2-hd-AEn4cTGWOOdmUgB-17">
          <mxGeometry width="100" height="100" relative="1" as="geometry">
            <Array as="points" />
          </mxGeometry>
        </mxCell>
        <mxCell id="2-hd-AEn4cTGWOOdmUgB-25" value="" style="html=1;jettySize=18;whiteSpace=wrap;overflow=block;blockSpacing=1;fontSize=13;strokeColor=#3a414a;strokeOpacity=100;strokeWidth=0.8;rounded=1;arcSize=12;edgeStyle=orthogonalEdgeStyle;startArrow=none;endArrow=block;endFill=1;exitX=1.003;exitY=0.5;exitPerimeter=0;entryX=-0.003;entryY=0.5;entryPerimeter=0;lucidId=RiAMJ5P43Q4o;" edge="1" parent="1" source="2-hd-AEn4cTGWOOdmUgB-5" target="2-hd-AEn4cTGWOOdmUgB-19">
          <mxGeometry width="100" height="100" relative="1" as="geometry">
            <Array as="points" />
          </mxGeometry>
        </mxCell>
        <mxCell id="2-hd-AEn4cTGWOOdmUgB-26" value="&lt;div style=&quot;display: flex; justify-content: center; text-align: center; align-items: baseline; font-size: 0; line-height: 1.25;margin-top: -2px;&quot;&gt;&lt;span&gt;&lt;span style=&quot;font-size:13.3px;color:#3a414a;&quot;&gt;DriveRack Speaker&lt;/span&gt;&lt;span style=&quot;font-size:13.3px;color:#3a414a;&quot;&gt;&lt;br&gt;&lt;/span&gt;&lt;span style=&quot;font-size:10px;color:#3a414a;&quot;&gt;Kulkas Power Sakristi&lt;/span&gt;&lt;span style=&quot;font-size:13.3px;color:#3a414a;&quot;&gt; &lt;/span&gt;&lt;/span&gt;&lt;/div&gt;" style="html=1;overflow=block;blockSpacing=1;whiteSpace=wrap;fontSize=13;spacing=9;strokeColor=#3a414a;strokeOpacity=100;rounded=1;absoluteArcSize=1;arcSize=9;strokeWidth=0.8;lucidId=3iAMhybMP5~h;" vertex="1" parent="1">
          <mxGeometry x="450" y="660" width="135" height="52" as="geometry" />
        </mxCell>
        <mxCell id="2-hd-AEn4cTGWOOdmUgB-27" value="&lt;div style=&quot;display: flex; justify-content: center; text-align: center; align-items: baseline; font-size: 0; line-height: 1.25;margin-top: -2px;&quot;&gt;&lt;span&gt;&lt;span style=&quot;font-size:13.3px;color:#3a414a;&quot;&gt;Power Speaker&lt;/span&gt;&lt;span style=&quot;font-size:13.3px;color:#3a414a;&quot;&gt;&lt;br&gt;&lt;/span&gt;&lt;span style=&quot;font-size:10px;color:#3a414a;&quot;&gt;Kulkas Power Sakristi&lt;/span&gt;&lt;span style=&quot;font-size:13.3px;color:#3a414a;&quot;&gt; &lt;/span&gt;&lt;/span&gt;&lt;/div&gt;" style="html=1;overflow=block;blockSpacing=1;whiteSpace=wrap;fontSize=13;spacing=9;strokeColor=#3a414a;strokeOpacity=100;rounded=1;absoluteArcSize=1;arcSize=9;strokeWidth=0.8;lucidId=5jAMSIjYGYDW;" vertex="1" parent="1">
          <mxGeometry x="645" y="660" width="135" height="52" as="geometry" />
        </mxCell>
        <mxCell id="2-hd-AEn4cTGWOOdmUgB-73" style="edgeStyle=orthogonalEdgeStyle;rounded=0;orthogonalLoop=1;jettySize=auto;html=1;exitX=0.5;exitY=1;exitDx=0;exitDy=0;entryX=0;entryY=0.5;entryDx=0;entryDy=0;curved=1;" edge="1" parent="1" source="2-hd-AEn4cTGWOOdmUgB-28" target="2-hd-AEn4cTGWOOdmUgB-42">
          <mxGeometry relative="1" as="geometry" />
        </mxCell>
        <mxCell id="2-hd-AEn4cTGWOOdmUgB-28" value="&lt;div style=&quot;display: flex; justify-content: center; text-align: center; align-items: baseline; font-size: 0; line-height: 1.25;margin-top: -2px;&quot;&gt;&lt;span&gt;&lt;span style=&quot;font-size:13.3px;color:#3a414a;&quot;&gt;UPS CCTV&lt;/span&gt;&lt;span style=&quot;font-size:13.3px;color:#3a414a;&quot;&gt;&lt;br&gt;&lt;/span&gt;&lt;span style=&quot;font-size:10px;color:#3a414a;&quot;&gt;Sakristi&lt;/span&gt;&lt;span style=&quot;font-size:13.3px;color:#3a414a;&quot;&gt; &lt;/span&gt;&lt;/span&gt;&lt;/div&gt;" style="html=1;overflow=block;blockSpacing=1;whiteSpace=wrap;fontSize=13;spacing=9;strokeColor=#3a414a;strokeOpacity=100;rounded=1;absoluteArcSize=1;arcSize=9;strokeWidth=0.8;lucidId=.jAMkpmEkD0z;" vertex="1" parent="1">
          <mxGeometry x="450" y="720" width="135" height="52" as="geometry" />
        </mxCell>
        <mxCell id="2-hd-AEn4cTGWOOdmUgB-31" value="&lt;div style=&quot;display: flex; justify-content: center; text-align: center; align-items: baseline; font-size: 0; line-height: 1.25;margin-top: -2px;&quot;&gt;&lt;span&gt;&lt;span style=&quot;font-size:13.3px;color:#3a414a;&quot;&gt;Power Microphone&lt;/span&gt;&lt;span style=&quot;font-size:13.3px;color:#3a414a;&quot;&gt;&lt;br&gt;&lt;/span&gt;&lt;span style=&quot;font-size:10px;color:#3a414a;&quot;&gt;Kulkas Power Sakristi&lt;/span&gt;&lt;span style=&quot;font-size:13.3px;color:#3a414a;&quot;&gt; &lt;/span&gt;&lt;/span&gt;&lt;/div&gt;" style="html=1;overflow=block;blockSpacing=1;whiteSpace=wrap;fontSize=13;spacing=9;strokeColor=#3a414a;strokeOpacity=100;rounded=1;absoluteArcSize=1;arcSize=9;strokeWidth=0.8;lucidId=slAMDyKpJIK4;" vertex="1" parent="1">
          <mxGeometry x="645" y="720" width="135" height="52" as="geometry" />
        </mxCell>
        <mxCell id="2-hd-AEn4cTGWOOdmUgB-32" value="" style="html=1;jettySize=18;whiteSpace=wrap;overflow=block;blockSpacing=1;fontSize=13;strokeColor=#3a414a;strokeOpacity=100;strokeWidth=0.8;rounded=1;arcSize=12;edgeStyle=orthogonalEdgeStyle;startArrow=none;endArrow=block;endFill=1;exitX=0.5;exitY=1.005;exitPerimeter=0;entryX=-0.003;entryY=0.5;entryPerimeter=0;lucidId=HlAMh41xL38a;" edge="1" parent="1" source="2-hd-AEn4cTGWOOdmUgB-6" target="2-hd-AEn4cTGWOOdmUgB-26">
          <mxGeometry width="100" height="100" relative="1" as="geometry">
            <Array as="points" />
          </mxGeometry>
        </mxCell>
        <mxCell id="2-hd-AEn4cTGWOOdmUgB-33" value="" style="html=1;jettySize=18;whiteSpace=wrap;overflow=block;blockSpacing=1;fontSize=13;strokeColor=#3a414a;strokeOpacity=100;strokeWidth=0.8;rounded=1;arcSize=12;edgeStyle=orthogonalEdgeStyle;startArrow=none;endArrow=block;endFill=1;exitX=0.5;exitY=1.005;exitPerimeter=0;entryX=-0.003;entryY=0.5;entryPerimeter=0;lucidId=JlAM-n.F6rTn;" edge="1" parent="1" source="2-hd-AEn4cTGWOOdmUgB-6" target="2-hd-AEn4cTGWOOdmUgB-28">
          <mxGeometry width="100" height="100" relative="1" as="geometry">
            <Array as="points" />
          </mxGeometry>
        </mxCell>
        <mxCell id="2-hd-AEn4cTGWOOdmUgB-36" value="" style="html=1;jettySize=18;whiteSpace=wrap;overflow=block;blockSpacing=1;fontSize=13;strokeColor=#3a414a;strokeOpacity=100;strokeWidth=0.8;rounded=1;arcSize=12;edgeStyle=orthogonalEdgeStyle;startArrow=none;endArrow=block;endFill=1;exitX=0.5;exitY=1.005;exitPerimeter=0;entryX=-0.003;entryY=0.5;entryPerimeter=0;lucidId=QlAM-jHyb18c;" edge="1" parent="1" source="2-hd-AEn4cTGWOOdmUgB-7" target="2-hd-AEn4cTGWOOdmUgB-27">
          <mxGeometry width="100" height="100" relative="1" as="geometry">
            <Array as="points" />
          </mxGeometry>
        </mxCell>
        <mxCell id="2-hd-AEn4cTGWOOdmUgB-37" value="" style="html=1;jettySize=18;whiteSpace=wrap;overflow=block;blockSpacing=1;fontSize=13;strokeColor=#3a414a;strokeOpacity=100;strokeWidth=0.8;rounded=1;arcSize=12;edgeStyle=orthogonalEdgeStyle;startArrow=none;endArrow=block;endFill=1;exitX=0.5;exitY=1.005;exitPerimeter=0;entryX=-0.003;entryY=0.5;entryPerimeter=0;lucidId=SlAMhBdjFP9Z;" edge="1" parent="1" source="2-hd-AEn4cTGWOOdmUgB-7" target="2-hd-AEn4cTGWOOdmUgB-31">
          <mxGeometry width="100" height="100" relative="1" as="geometry">
            <Array as="points" />
          </mxGeometry>
        </mxCell>
        <mxCell id="2-hd-AEn4cTGWOOdmUgB-38" value="" style="html=1;overflow=block;blockSpacing=1;whiteSpace=wrap;fontSize=13;spacing=3.8;strokeColor=#3a414a;strokeOpacity=100;fillOpacity=0;rounded=1;absoluteArcSize=1;arcSize=9;fillColor=#000000;strokeWidth=0.8;lucidId=nmAMJ-b-Nvin;" vertex="1" parent="1">
          <mxGeometry x="1302" y="311" width="870" height="900" as="geometry" />
        </mxCell>
        <mxCell id="2-hd-AEn4cTGWOOdmUgB-83" style="edgeStyle=orthogonalEdgeStyle;rounded=0;orthogonalLoop=1;jettySize=auto;html=1;exitX=1;exitY=0.5;exitDx=0;exitDy=0;entryX=0.5;entryY=0;entryDx=0;entryDy=0;curved=1;strokeColor=#007FFF;" edge="1" parent="1" source="2-hd-AEn4cTGWOOdmUgB-41" target="2-hd-AEn4cTGWOOdmUgB-16">
          <mxGeometry relative="1" as="geometry">
            <Array as="points">
              <mxPoint x="1353" y="988" />
              <mxPoint x="1353" y="534" />
              <mxPoint x="1088" y="534" />
            </Array>
          </mxGeometry>
        </mxCell>
        <mxCell id="2-hd-AEn4cTGWOOdmUgB-84" style="edgeStyle=orthogonalEdgeStyle;rounded=0;orthogonalLoop=1;jettySize=auto;html=1;exitX=1;exitY=0.5;exitDx=0;exitDy=0;entryX=0.5;entryY=0;entryDx=0;entryDy=0;curved=1;strokeColor=#00FF00;" edge="1" parent="1" source="2-hd-AEn4cTGWOOdmUgB-41" target="2-hd-AEn4cTGWOOdmUgB-54">
          <mxGeometry relative="1" as="geometry">
            <Array as="points">
              <mxPoint x="1328" y="988" />
              <mxPoint x="1328" y="562" />
              <mxPoint x="1231" y="562" />
            </Array>
          </mxGeometry>
        </mxCell>
        <mxCell id="2-hd-AEn4cTGWOOdmUgB-41" value="&lt;div style=&quot;display: flex; justify-content: center; text-align: center; align-items: baseline; font-size: 0; line-height: 1.25;margin-top: -2px;&quot;&gt;&lt;span&gt;&lt;span style=&quot;font-size:13.3px;color:#3a414a;&quot;&gt;DVR CCTV&lt;/span&gt;&lt;span style=&quot;font-size:13.3px;color:#3a414a;&quot;&gt;&lt;br&gt;&lt;/span&gt;&lt;span style=&quot;font-size:10px;color:#3a414a;&quot;&gt;Lemari CCTV Sakristi&lt;/span&gt;&lt;/span&gt;&lt;/div&gt;" style="html=1;overflow=block;blockSpacing=1;whiteSpace=wrap;fontSize=13;spacing=9;strokeColor=#3a414a;strokeOpacity=100;rounded=1;absoluteArcSize=1;arcSize=9;strokeWidth=0.8;lucidId=ZpAMX0EqDEsn;" vertex="1" parent="1">
          <mxGeometry x="1020" y="962" width="135" height="52" as="geometry" />
        </mxCell>
        <mxCell id="2-hd-AEn4cTGWOOdmUgB-42" value="&lt;div style=&quot;display: flex; justify-content: center; text-align: center; align-items: baseline; font-size: 0; line-height: 1.25;margin-top: -2px;&quot;&gt;&lt;span&gt;&lt;span style=&quot;font-size:16.7px;color:#3a414a;&quot;&gt;AVR&#xa;&lt;/span&gt;&lt;span style=&quot;font-size:10px;color:#3a414a;&quot;&gt; &#xa;Lemari CCTV Sakristi&lt;/span&gt;&lt;/span&gt;&lt;/div&gt;" style="html=1;overflow=block;blockSpacing=1;whiteSpace=wrap;fontSize=13;spacing=9;strokeColor=#3a414a;strokeOpacity=100;rounded=1;absoluteArcSize=1;arcSize=9;strokeWidth=0.8;lucidId=5pAMua28G7FG;" vertex="1" parent="1">
          <mxGeometry x="863" y="1009" width="113" height="78" as="geometry" />
        </mxCell>
        <mxCell id="2-hd-AEn4cTGWOOdmUgB-43" value="&lt;div style=&quot;display: flex; justify-content: center; text-align: center; align-items: baseline; font-size: 0; line-height: 1.25;margin-top: -2px;&quot;&gt;&lt;span&gt;&lt;span style=&quot;font-size:13.3px;color:#3a414a;&quot;&gt;TV Monitor&lt;/span&gt;&lt;span style=&quot;font-size:13.3px;color:#3a414a;&quot;&gt;&lt;br&gt;&lt;/span&gt;&lt;span style=&quot;font-size:10px;color:#3a414a;&quot;&gt;Lemari CCTV Sakristi&lt;/span&gt;&lt;/span&gt;&lt;/div&gt;" style="html=1;overflow=block;blockSpacing=1;whiteSpace=wrap;fontSize=13;spacing=9;strokeColor=#3a414a;strokeOpacity=100;rounded=1;absoluteArcSize=1;arcSize=9;strokeWidth=0.8;lucidId=JqAMcGMIS2_i;" vertex="1" parent="1">
          <mxGeometry x="1020" y="1022" width="135" height="52" as="geometry" />
        </mxCell>
        <mxCell id="2-hd-AEn4cTGWOOdmUgB-44" value="&lt;div style=&quot;display: flex; justify-content: center; text-align: center; align-items: baseline; font-size: 0; line-height: 1.25;margin-top: -2px;&quot;&gt;&lt;span&gt;&lt;span style=&quot;font-size:13.3px;color:#3a414a;&quot;&gt;Video Distributor&lt;/span&gt;&lt;span style=&quot;font-size:13.3px;color:#3a414a;&quot;&gt;&lt;br&gt;&lt;/span&gt;&lt;span style=&quot;font-size:10px;color:#3a414a;&quot;&gt;Lemari CCTV Sakristi&lt;/span&gt;&lt;/span&gt;&lt;/div&gt;" style="html=1;overflow=block;blockSpacing=1;whiteSpace=wrap;fontSize=13;spacing=9;strokeColor=#3a414a;strokeOpacity=100;rounded=1;absoluteArcSize=1;arcSize=9;strokeWidth=0.8;lucidId=2qAMma_M3knX;" vertex="1" parent="1">
          <mxGeometry x="1020" y="1082" width="135" height="52" as="geometry" />
        </mxCell>
        <mxCell id="2-hd-AEn4cTGWOOdmUgB-50" value="" style="html=1;jettySize=18;whiteSpace=wrap;overflow=block;blockSpacing=1;fontSize=13;strokeColor=#3a414a;strokeOpacity=100;strokeWidth=0.8;rounded=1;arcSize=12;edgeStyle=orthogonalEdgeStyle;startArrow=none;endArrow=block;endFill=1;exitX=1.003;exitY=0.5;exitPerimeter=0;entryX=-0.003;entryY=0.5;entryPerimeter=0;lucidId=nuAMim9y7x4i;" edge="1" parent="1" source="2-hd-AEn4cTGWOOdmUgB-42" target="2-hd-AEn4cTGWOOdmUgB-41">
          <mxGeometry width="100" height="100" relative="1" as="geometry">
            <Array as="points" />
          </mxGeometry>
        </mxCell>
        <mxCell id="2-hd-AEn4cTGWOOdmUgB-51" value="" style="html=1;jettySize=18;whiteSpace=wrap;overflow=block;blockSpacing=1;fontSize=13;strokeColor=#3a414a;strokeOpacity=100;strokeWidth=0.8;rounded=1;arcSize=12;edgeStyle=orthogonalEdgeStyle;startArrow=none;endArrow=block;endFill=1;exitX=1.003;exitY=0.5;exitPerimeter=0;entryX=-0.003;entryY=0.5;entryPerimeter=0;lucidId=vuAMTntErS4f;" edge="1" parent="1" source="2-hd-AEn4cTGWOOdmUgB-42" target="2-hd-AEn4cTGWOOdmUgB-43">
          <mxGeometry width="100" height="100" relative="1" as="geometry">
            <Array as="points" />
          </mxGeometry>
        </mxCell>
        <mxCell id="2-hd-AEn4cTGWOOdmUgB-52" value="" style="html=1;jettySize=18;whiteSpace=wrap;overflow=block;blockSpacing=1;fontSize=13;strokeColor=#3a414a;strokeOpacity=100;strokeWidth=0.8;rounded=1;arcSize=12;edgeStyle=orthogonalEdgeStyle;startArrow=none;endArrow=block;endFill=1;exitX=1.003;exitY=0.5;exitPerimeter=0;entryX=-0.003;entryY=0.5;entryPerimeter=0;lucidId=xuAMX51ii_yj;" edge="1" parent="1" source="2-hd-AEn4cTGWOOdmUgB-42" target="2-hd-AEn4cTGWOOdmUgB-44">
          <mxGeometry width="100" height="100" relative="1" as="geometry">
            <Array as="points" />
          </mxGeometry>
        </mxCell>
        <mxCell id="2-hd-AEn4cTGWOOdmUgB-54" value="&lt;div style=&quot;display: flex; justify-content: center; text-align: center; align-items: baseline; font-size: 0; line-height: 1.25;margin-top: -2px;&quot;&gt;&lt;span&gt;&lt;span style=&quot;font-size:13.3px;color:#3a414a;&quot;&gt;Joystick Controller&lt;/span&gt;&lt;span style=&quot;font-size:13.3px;color:#3a414a;&quot;&gt;&lt;br&gt;&lt;/span&gt;&lt;span style=&quot;font-size:10px;color:#3a414a;&quot;&gt;Lemari CCTV Sakristi&lt;/span&gt;&lt;/span&gt;&lt;/div&gt;" style="html=1;overflow=block;blockSpacing=1;whiteSpace=wrap;fontSize=13;spacing=9;strokeColor=#3a414a;strokeOpacity=100;rounded=1;absoluteArcSize=1;arcSize=9;strokeWidth=0.8;lucidId=ovAMmqMkgO.d;" vertex="1" parent="1">
          <mxGeometry x="1163.5" y="574" width="135" height="52" as="geometry" />
        </mxCell>
        <mxCell id="2-hd-AEn4cTGWOOdmUgB-76" value="&lt;div style=&quot;display: flex; justify-content: center; text-align: center; align-items: baseline; font-size: 0; line-height: 1.25;margin-top: -2px;&quot;&gt;&lt;span&gt;&lt;span style=&quot;font-size:13.3px;color:#3a414a;&quot;&gt;Mixer Server&lt;br&gt;&lt;/span&gt;&lt;span style=&quot;font-size:10px;color:#3a414a;&quot;&gt;Control Room lt. 2&lt;/span&gt;&lt;/span&gt;&lt;/div&gt;" style="html=1;overflow=block;blockSpacing=1;whiteSpace=wrap;fontSize=13;spacing=9;strokeColor=#3a414a;strokeOpacity=100;rounded=1;absoluteArcSize=1;arcSize=9;strokeWidth=0.8;lucidId=qfAMlNvAzL~B;" vertex="1" parent="1">
          <mxGeometry x="876.5" y="731" width="135" height="54" as="geometry" />
        </mxCell>
        <mxCell id="2-hd-AEn4cTGWOOdmUgB-77" value="&lt;div style=&quot;display: flex; justify-content: center; text-align: center; align-items: baseline; font-size: 0; line-height: 1.25;margin-top: -2px;&quot;&gt;&lt;span&gt;&lt;span style=&quot;font-size:13.3px;color:#3a414a;&quot;&gt;Amplifier Gd. Maria&lt;br&gt;&lt;/span&gt;&lt;span style=&quot;font-size:10px;color:#3a414a;&quot;&gt;Control Room lt. 2&lt;/span&gt;&lt;/span&gt;&lt;/div&gt;" style="html=1;overflow=block;blockSpacing=1;whiteSpace=wrap;fontSize=13;spacing=9;strokeColor=#3a414a;strokeOpacity=100;rounded=1;absoluteArcSize=1;arcSize=9;strokeWidth=0.8;lucidId=qfAMlNvAzL~B;" vertex="1" parent="1">
          <mxGeometry x="1020.5" y="731" width="135" height="54" as="geometry" />
        </mxCell>
        <mxCell id="2-hd-AEn4cTGWOOdmUgB-78" value="&lt;div style=&quot;display: flex; justify-content: center; text-align: center; align-items: baseline; font-size: 0; line-height: 1.25;margin-top: -2px;&quot;&gt;&lt;span&gt;&lt;span style=&quot;font-size:13.3px;color:#3a414a;&quot;&gt;Speaker Monitor&lt;br&gt;&lt;/span&gt;&lt;span style=&quot;font-size:10px;color:#3a414a;&quot;&gt;Control Room lt. 2&lt;/span&gt;&lt;/span&gt;&lt;/div&gt;" style="html=1;overflow=block;blockSpacing=1;whiteSpace=wrap;fontSize=13;spacing=9;strokeColor=#3a414a;strokeOpacity=100;rounded=1;absoluteArcSize=1;arcSize=9;strokeWidth=0.8;lucidId=qfAMlNvAzL~B;" vertex="1" parent="1">
          <mxGeometry x="1163.5" y="731" width="135" height="54" as="geometry" />
        </mxCell>
        <mxCell id="2-hd-AEn4cTGWOOdmUgB-79" value="" style="html=1;jettySize=18;whiteSpace=wrap;overflow=block;blockSpacing=1;fontSize=13;strokeColor=#3a414a;strokeOpacity=100;strokeWidth=0.8;rounded=1;arcSize=12;edgeStyle=orthogonalEdgeStyle;startArrow=none;endArrow=block;endFill=1;exitX=0.5;exitY=1;entryX=0.5;entryY=0;lucidId=BiAM5VQ3H9kd;exitDx=0;exitDy=0;entryDx=0;entryDy=0;" edge="1" parent="1" source="2-hd-AEn4cTGWOOdmUgB-17" target="2-hd-AEn4cTGWOOdmUgB-76">
          <mxGeometry width="100" height="100" relative="1" as="geometry">
            <Array as="points" />
            <mxPoint x="985" y="644" as="sourcePoint" />
            <mxPoint x="1030" y="581" as="targetPoint" />
          </mxGeometry>
        </mxCell>
        <mxCell id="2-hd-AEn4cTGWOOdmUgB-80" value="" style="html=1;jettySize=18;whiteSpace=wrap;overflow=block;blockSpacing=1;fontSize=13;strokeColor=#3a414a;strokeOpacity=100;strokeWidth=0.8;rounded=1;arcSize=12;edgeStyle=orthogonalEdgeStyle;startArrow=none;endArrow=block;endFill=1;entryX=0.5;entryY=0;lucidId=BiAM5VQ3H9kd;entryDx=0;entryDy=0;" edge="1" parent="1" source="2-hd-AEn4cTGWOOdmUgB-17" target="2-hd-AEn4cTGWOOdmUgB-77">
          <mxGeometry width="100" height="100" relative="1" as="geometry">
            <Array as="points" />
            <mxPoint x="1088" y="661" as="sourcePoint" />
            <mxPoint x="954" y="741" as="targetPoint" />
          </mxGeometry>
        </mxCell>
        <mxCell id="2-hd-AEn4cTGWOOdmUgB-81" value="" style="html=1;jettySize=18;whiteSpace=wrap;overflow=block;blockSpacing=1;fontSize=13;strokeColor=#3a414a;strokeOpacity=100;strokeWidth=0.8;rounded=1;arcSize=12;edgeStyle=orthogonalEdgeStyle;startArrow=none;endArrow=block;endFill=1;lucidId=BiAM5VQ3H9kd;exitX=0.5;exitY=1;exitDx=0;exitDy=0;" edge="1" parent="1" source="2-hd-AEn4cTGWOOdmUgB-17" target="2-hd-AEn4cTGWOOdmUgB-78">
          <mxGeometry width="100" height="100" relative="1" as="geometry">
            <Array as="points" />
            <mxPoint x="1098" y="671" as="sourcePoint" />
            <mxPoint x="1098" y="741" as="targetPoint" />
          </mxGeometry>
        </mxCell>
        <mxCell id="2-hd-AEn4cTGWOOdmUgB-82" value="" style="html=1;jettySize=18;whiteSpace=wrap;overflow=block;blockSpacing=1;fontSize=13;strokeColor=#3a414a;strokeOpacity=100;strokeWidth=0.8;rounded=1;arcSize=12;edgeStyle=orthogonalEdgeStyle;startArrow=none;endArrow=block;endFill=1;entryX=0.5;entryY=0;lucidId=BiAM5VQ3H9kd;entryDx=0;entryDy=0;" edge="1" parent="1" target="2-hd-AEn4cTGWOOdmUgB-17">
          <mxGeometry width="100" height="100" relative="1" as="geometry">
            <Array as="points" />
            <mxPoint x="1088.5" y="665" as="sourcePoint" />
            <mxPoint x="1088.5" y="735" as="targetPoint" />
          </mxGeometry>
        </mxCell>
        <mxCell id="2-hd-AEn4cTGWOOdmUgB-17" value="&lt;div style=&quot;display: flex; justify-content: center; text-align: center; align-items: baseline; font-size: 0; line-height: 1.25;margin-top: -2px;&quot;&gt;&lt;span&gt;&lt;span style=&quot;font-size:13.3px;color:#3a414a;&quot;&gt;UPS Sound System&lt;br&gt;&lt;/span&gt;&lt;span style=&quot;font-size:10px;color:#3a414a;&quot;&gt;Control Room lt. 2&lt;/span&gt;&lt;/span&gt;&lt;/div&gt;" style="html=1;overflow=block;blockSpacing=1;whiteSpace=wrap;fontSize=13;spacing=9;strokeColor=#3a414a;strokeOpacity=100;rounded=1;absoluteArcSize=1;arcSize=9;strokeWidth=0.8;lucidId=qfAMlNvAzL~B;" vertex="1" parent="1">
          <mxGeometry x="1020.5" y="639" width="135" height="54" as="geometry" />
        </mxCell>
        <mxCell id="2-hd-AEn4cTGWOOdmUgB-89" value="" style="shape=image;verticalLabelPosition=bottom;labelBackgroundColor=default;verticalAlign=top;aspect=fixed;imageAspect=0;image=data:image/png,iVBORw0KGgoAAAANSUhEUgAAAMgAAADICAYAAACtWK6eAAAABHNCSVQICAgIfAhkiAAAAAlwSFlzAAALEwAACxMBAJqcGAAAD9RJREFUeJztnXfwXFUVxz/5pRBIAwOBCAEiEKVIF0FR0UGagoI6SLeMSlGUsaGg6NiQEUUREEWGcVCMgEQQkV4EAiS0NCAhJHQMkBADMfX384+zazab3f299/aee+6+PZ+Z7/wysHvvueXse7edC47jOI7jOI7jOI7jOI7jOI7jOI7jOI7jOI7jOI7jOI7jOI7jOI7jFGX9ihzHqeNtwLSKJhjb4jhJcQLwOtBX0RLgOFOLHCcBRgNXscYx6jUR2MjMOscx5HDgBZo7R1XPA4cZ2eg40RkLXEn/jlGvK4BNDex1nCgMBL4CLCa/c1T1GvClSlqOUxoOBqZT3DHqNQ04IGoJHEeBPYCbCOcY9boB2C1aaRwnEDsDk9BzjFr1IjNhO0UpmeO0wb7A9cRxjEaOci2wj3opHScHg4FjgPuxcYxGmgwcVbHNcUyYAJwDvIS9QzTTi8DZwLZKdeA4a7EpMs16L/adP+/r193AKcAmwWvF6WrGI+sXdwKrsO/s7WoVcBtwKrBVwHoqJQOsDUiQ0chge3/gQGA7W3PUeQK4EbgVecostDUnLVJ0kM8iA94ZEfLaANgR2BN4B/BOYHvSrJcY9AEzkfqfAkwFZgH/jZD3rsDuwKUR8spMih3hH8jK8xxkNmYW8DQy4HwF2Qq+BFgOrEZeGXoqGgisBwyt/B1e0YjK3y2AbYC3II6xdeV7TnN6gaeQdphb+fdzyPb815G2eANpj2UV9SJt0wcMQtplKNIGI5Gn9JuR+t8BeBfSJpOQTZzJMMjagAaMqfzdjvK/3nQCPcgsWIyZsDH9fyQuKf56bmxtgGNGcm3vDuKkxGhrA+pJbQwylDgDQidNepHV/15rQ6qk9gR5k7UBjik9wChrI2pJzUH8/LWTVB9IzUE2tDbAMSepPuAO4qRGUn0gNQcZaW2AY447SAvcQZyk+oA7iJMaw60NqCU1BxlhbYBjjjtIC5KqHMeEpPqAO4iTGkn1gdQcZJi1AY457iAt8MtjnKT6QGrnQZKqnIj0AUuRw0Y9SLsMJ73NpDEYam1ALe4g8ehFjrNOqfx9gjUnJRciTlJLD7IvqXrybgISsfEQyn0kICkHSY37sI/6EVLPAOcDhxJmjWcCcrx1EnA88Bck4rt1OUPq1gD1VFoexr6B2tVi4CJgb8K+Ig0CHqjk8bma/z4YifR+JbAigfK3q3var6ryMhP7BiqqJ4GTkEgpGvygJq9mZ/U3BU5HXtus66OoHixcQ13AHOwbKK+eQi7c1JwR3Ic1Qeuez/D59YGvAguwr5+8mpazbrqK+dg3UFYtAb6OfoDo4Ui4nWq+f8r53R/RWa9es3KUr+t4HvsGyqLrgM2V6qCeS+vy/kKBNHZCYoxZ11sWPVGgfF3Dv7FvoFZ6A4n8GIsjGtjw1oJp9SBPvJUN0kxJcwuWryt4BfsGaqbHkWiMsRjLuvXxYoB030u266et9HSAMpaW6oJZarqRuNE2BlTyrLfjz4HS34x0X7meC1TGUrII+waq1++Jv+Pg1Ca2nBgwj2E0dkJrvRSwjKUjtVXhXxF/P9QOSPC8RvZsHzivIchTybqe3UEyktIT5ELlsjZiCPBQE3u0Os5A4JomeVroBaVyloJUHOQKbI4C/LSFTX9RzHcocoOWdb33kW0htGtJYZA+GblbJDbvY82dGo10snL+o5BLi6zr/1nlcnY0L2PbOC8gMzyxGYVMb7ayLcYU81uRHQKWbeDTvC2w3GS3Gni/fhEb8sd+bFsQ0Zaj+rFFW/P0i9i5PIddw/w4QvkakaVDXhXZpt9msElLvpLegnnYNMpMbMYd48g2MfHFyHaNwu5pPjtC+TqW2dg0yr4xClfHAOS+8iz27WRg35EZbQst3+7eAotZlDzbx0PytYz2vYxd8AaLlfYHopSsQ3mQuI2xHNgqSsnWZudK3llsvNrAvip7tLBLS3dGKVlGUouLtTxyfpcSf1pxKDJrNSTj5y07zIPA3yLnuSxyfh3FLcT7pVqFzdPjvJx27mxgYy27oFP/zRTbITuKa4nXEBMjlamWDyLxsbLa+CppBI+7nXjtEmpLfxBSe8VaGjGvCyLmBXKD72Xk6/B3IZ3Gmosj5pXUK1ZqDvJGpHzmIp0vJhcjURLzcIeCHUX4KzKbFoNYfSATqTnIkkj5/DFSPlVOAD5e4HupzOisQHc3cS2LI+WTidQc5D+R8rkmUj4A45Hwo3lZRFqLZtdFyue1SPlkIjUHifEEeRZ4JEI+IIeR/kCxq+X+hQzoU+EO4PUI+fgTpAUxfj1ui5BHldMpvo3ljoB2hGA5cHOEfPwJ0oJFEfKI9V6/J3BWG99PZfxRy+QIeSTlIKndDxLDQaZEyGMD4HKKhyVdhrTNnsEsWsNMJChEEaaGNKQJSb1ipcZu6C5CLUXGBdpcqFyOorqN9t4aRpJvobOI3taGfaVnHLqV/2iEMhyiXIaiWoTUb7vMU7ZzTAAbg5HaGER7MUr7tNomyAbIFDmZMAERNIMqrELCrSZDag6yDN2pXu2IGZcgl9ikxhUVhUAzNOgC0praTs5BQDdAgeYT6vPAYYrpF+UZwoYM0vyRCRGcOygpOohm6MmFSuluB/xcKe126EW2uYScOtXc7ZBc2NEUHUQz9KTGTtFByJTuMIW02+Vcwi84rgycXi3+BMmAZuhJjcb9DrCXQrrt8ghwpkK6qxTSrOIOkgFNBwl9Sf3ewBmB0wzBMuAYZBduaDQdxF+xMqA5SxLyNWg48moVY+ExL6ejdxnmSKV0IcHA1Sk6yHzFtEM6yC+BbQKmF4qbkHtNtBitmHZyURW7zUE2CZTO4cBnAqUVkleBTyEr0lpoOUgfcud8UqToIC9RfDNdf4wPkMZY4HcB0tHgC+gPdLW2grxI3JgEmUhtN2+VechVZKEJ4SDnVP6+GiCtWkaQPVZWIy4jTpC50NfAVUnu9SpltK4Ee4M0n5rQXlTJpyh2ajEvI9qwsT8luYct1c7yhFK6G6DzZGqXUcCuBb+7GjiOOMeVNS/xSfIJ0m0OAvBOxbSL8l6Kt8XZwD0BbWnF7oppP6mYdmFSdZDHFdPeWzHtouxX8HtTgO+FM6Nf9ldM2+8FycEI9E6upXhJ5FSKjacmRLSxB71biFfQ3gRFVzIPvQGh5qtCXkYh2zfyluHEyHbuVcDGrHo4YjlykeorFsB0xbRTOrfxHvJvV7ke+I2CLa34hGLa7iAF0Dw/frRi2nnZL+fnFxB/FX8gsvlRi4cU0y4th6H3SO/D7srneqaQz+5DDWw8KKeNefXueEUpD2PRbRSruwlrGUm+8UfMawhquTKHjXm1GtkZ7RRA89705cCW8YrSkA+R3d7Z2JxanIB0Yq120FzzapuUxyCgG+pyCHJuwpL9Mn5uFXAsNndnfBPdfhIjnGlpORXd16zlwBbRSrMuDzSxq17fNbJvS2SNQrMNjotWmhKyK7qN04dcT2DBCLKNP+7F7tTixAz2tavNo5WmhGiu3taq6BUF7ZAlROkS4C0GtoHM8mnXu+aWoq7havQb6lHin405J4NdVqcWBwMzMtjXri6MVaAy8zn0G6oP+EGsAlW4vx97/hrZnlrObmFXSH0sVoHKjHbE96pWI9vOYzACidHVzJYX0A2O0IoPoDutW1UvcjW2E4BpxHGSZ4CNI5Tn4BY29AIHRrChERuju/ZUq/sjlaktUl8HqRLrdWMcMAlYTzmf/Vr8vwuAG5Xzb8R6SNljzSqFijbvAG8nzq9aVZcrl+e+JvnOBNZXzrsRA4A/N7FJQ6uBzaKUrIt4nLhO8gulcgyn8fhjBXIFnQXnNrBHU7fEKVZ3cSZxG7EPnSsNmu2Mtdr2cl4TezSVYtC9jmcccWZX6vVrwo7VGk2h3hk4jywMAC5qYIu2liGnKB0FbiJ+g/YBfyfcluzJdWm/BmwVKO2sjEAv9lh/slzfKT2HY9Oofchqe7vBqoex7vjj2DbTzMu2yGSAVT1qRkbpenqQAGNWjbsECQ5dlAPr0os91Xk0cfa2NVNHrH10Ol/GroGrmkix22x/UpPGs8CGBdIowhjk1ca63j6qXVBHXlMWYN/YryHOmmcr+r2V7/YiWzq0GQSchNzua11f05GJAScCp2Hf4FXNAI6k/1moYaw5fHRuW6XPxkeIv3bUSppRUZw6hhJvz1BWPQYcT/NtKgdUPvdoi8+0y5CKDQ+1UQ4NzSXNq+pKzbHYN3wjLQTOB3aps/fHyBrATgHroMoOwPeRS2isy99ImkHnnBbcjn3jt9IcZKV6f2T/1WmByj0Y2Ac5qx7jYFM7+megMpvQ6YOm7ZFXlsHWhmTkdiRQ3HQk3M084JV+vrMZsnaxLRKC511InFyLTY15qT4xk7z7o1uIdfpNSyuQexlnI+deHkOmgBehH1FEW2e1aLeOoNOfICC3Rj2GfRA4Z22eRJ4ey60NaYdOOTDViqXAKdZGOGvRh6y/dLRzlI1LsH+lcIl+1U9bOQYMRx7r1p2j2zWLzphA6Er2odhtTa4wsjwVqULZVjefQ/Yfvc/akC7lTOAqayOc1gwie1BoVzjdRTkmfbqCrYFXse803aKX8CDUHcdB2Jxh7zatpMSvtGUbg9RSndFK5S7CsvJ1JKaW04EMAK7F/le2rJqYvSmcVBmF7Kq17kxl00z88s3SsD22wQrKppdpP8KLkxgfoPN3x6agZciWe6eEfBr7DtbJ6gU+mbvWnY7ih9h3tE7VtwvUt9NhDAD+hH1n6zRdWqSync5kPeBm7Dtdp+g64l9y6hgzjHUDSbvW1R1ImCWnC9mIePcfdqKmIpHgnS5mLH7QqpFmEedCU6cDGE96kRotNQ/fnevUsR3wPPad01rzkeMCjrMO3e4k83HncPqhW51kPu4cTka6zUnm487h5GRb4GnsO6+25hD/ElGnJIxDgkxbd2ItTUOCYztOYcYAj2DfmUPrPmSh1HHaZkPW3C9YBt2KnwZ0AjMMuAH7zt2urkHvCjinyxkEXIZ9Jy+qC/Hgbk4EfoR9Z8+rM1RqwnGacDKdEZhuJXLU2HGi8xHgdeydoJkWIxEmHceM3UhzJ/A8YEfFcjtOZjYHHsLeKaqajKzfOE4yDAMmYe8cV+BHZJ1EGYBdWKHVwLf0i+g47fMJ4g7eFwMfjlIyxwnELshAWds5ZiOxhx2n4xgN3Iiec/wNiV7vOB1LDzIu6SXseOMMZMzjOKXgMMJcwfAKcEBk2x0nCuORYGxFneMeYIvoVjtORIYA55PPMXqBn+HxcZ0u4ghgIf07xwLgECMbHceULYG7ae4ctyKhUR2naxkIfAfZll51jOXAN/DDTY7zf/ZCIqjMQHYIO45Tx/r4eXHHcRzHcRzHcRzHcRzHcRzHcRzHcRzHcRzHcRzHcRzHcRzHcRzHKcz/ABCr54+7UYjYAAAAAElFTkSuQmCC;fillColor=#212121;" vertex="1" parent="1">
          <mxGeometry x="416" y="828" width="92" height="92" as="geometry" />
        </mxCell>
      </root>
    </mxGraphModel>
  </diagram>
</mxfile>
